<svg width="388" height="206" viewBox="0 0 388 206" fill="none" xmlns="http://www.w3.org/2000/svg">
<path d="M387.457 0C387.028 4.70032 386.599 9.40065 385.956 14.101C377.374 76.1005 340.259 141.457 280.832 150.634C257.447 154.215 232.775 148.844 210.248 156.901C194.587 162.497 181.715 174.36 167.555 183.536C130.869 207.262 83.4557 212.186 43.1223 196.518C27.461 190.475 12.6578 181.074 0 169.659V11.1912C0 4.92415 4.71986 0 10.7269 0H387.457Z" fill="#27D5D6"/>
<path d="M387.457 0C387.028 4.70032 386.599 9.40065 385.956 14.101C377.374 76.1005 340.259 141.457 280.832 150.634C257.447 154.215 232.775 148.844 210.248 156.901C194.587 162.497 181.715 174.36 167.555 183.536C130.869 207.262 83.4557 212.186 43.1223 196.518C27.461 190.475 12.6578 181.074 0 169.659V11.1912C0 4.92415 4.71986 0 10.7269 0H387.457Z" fill="url(#paint0_linear_708_5044)"/>
<defs>
<linearGradient id="paint0_linear_708_5044" x1="260.99" y1="208.4" x2="55.3636" y2="-139.11" gradientUnits="userSpaceOnUse">
<stop stop-color="#5E50F5" stop-opacity="0"/>
<stop offset="1" stop-color="#5E50F5"/>
</linearGradient>
</defs>
</svg>
