<svg width="860" height="761" viewBox="0 0 860 761" fill="none" xmlns="http://www.w3.org/2000/svg">
<g opacity="0.32">
<path opacity="0.32" d="M872 135.633V749.809C872 756.076 867.28 761 861.273 761H154.582C156.941 731.679 160.374 702.581 151.793 674.827C146.215 656.921 135.917 640.806 124.761 625.81C85.2854 572.092 33.7961 525.536 11.484 461.97C-4.82092 415.19 -3.31915 361.696 16.8475 316.707C37.0142 271.718 75.6312 235.683 121.328 221.358C161.876 208.376 206.715 211.957 245.975 194.723C319.133 162.492 350.67 69.1569 419.108 26.854C462.874 -0.00500676 516.509 -2.6909 567.14 2.68089C678.486 14.3198 785.541 61.9945 872 135.633Z" fill="#7780F9"/>
</g>
</svg>
