<svg width="553" height="145" viewBox="0 0 553 145" fill="none" xmlns="http://www.w3.org/2000/svg">
<path d="M552.009 145H10.7269C6.22163 145 2.57447 142.314 0.858156 138.285C0.214539 136.942 0 135.375 0 133.809V0.185059C16.5195 1.75183 33.039 5.10922 48.9149 10.481C81.3103 21.6723 110.917 40.4735 138.163 61.5131C160.475 78.7476 183.645 98.668 211.535 99.7872C238.996 100.906 263.239 83.8956 288.34 72.0329C340.902 47.1883 403.119 45.3977 456.968 67.5564C494.727 83.2241 527.98 110.755 552.009 145Z" fill="#FCBC3B"/>
<path d="M552.009 145H10.7269C6.22163 145 2.57447 142.314 0.858156 138.285C0.214539 136.942 0 135.375 0 133.809V0.185059C16.5195 1.75183 33.039 5.10922 48.9149 10.481C81.3103 21.6723 110.917 40.4735 138.163 61.5131C160.475 78.7476 183.645 98.668 211.535 99.7872C238.996 100.906 263.239 83.8956 288.34 72.0329C340.902 47.1883 403.119 45.3977 456.968 67.5564C494.727 83.2241 527.98 110.755 552.009 145Z" fill="url(#paint0_linear_708_5051)"/>
<defs>
<linearGradient id="paint0_linear_708_5051" x1="412.83" y1="16.0748" x2="6.13761" y2="170.335" gradientUnits="userSpaceOnUse">
<stop stop-color="#FCBC3B" stop-opacity="0"/>
<stop offset="1" stop-color="#FCBC3B"/>
</linearGradient>
</defs>
</svg>
